<svg xmlns="http://www.w3.org/2000/svg" width="58" height="57" fill="none"><path fill="#FFFAF4" d="M.72 27.928c.24-.336.42-1.356.54-3.06.12-1.704.18-3.66.18-5.868v-2.16c0-2.208-.06-4.164-.18-5.868-.12-1.704-.3-2.724-.54-3.06V7.84h4.5V19c0 2.208.06 4.164.18 5.868.12 1.704.3 2.724.54 3.06V28H.72v-.072ZM.792 4.06c0-.624.228-1.164.684-1.62a2.2 2.2 0 0 1 1.656-.72c.624 0 1.164.24 1.62.72.48.456.72.996.72 1.62a2.2 2.2 0 0 1-.72 1.656c-.456.456-.996.684-1.62.684-.648 0-1.2-.228-1.656-.684A2.256 2.256 0 0 1 .792 4.06Zm13.736 23.868V11.8c0-2.208-.06-4.164-.18-5.868-.12-1.704-.3-2.724-.54-3.06V2.8l4.86-1.08v.072c-.095.36-.18 1.464-.252 3.312a142.436 142.436 0 0 0-.108 5.616V19c0 2.208.06 4.164.18 5.868.12 1.704.3 2.724.54 3.06V28h-4.5v-.072Zm.037-20.448c.864 0 1.62.084 2.268.252L15.176 9.46l-.037-.072a.455.455 0 0 0-.252-.216 1.163 1.163 0 0 0-.431-.072c-.913 0-1.609.912-2.089 2.736-.456 1.8-.684 3.9-.684 6.3 0 2.376.133 4.08.397 5.112.264 1.008.66 1.512 1.188 1.512.287 0 .527-.072.72-.216.191-.144.371-.336.54-.576v.18c-.36 1.368-.768 2.412-1.224 3.132-.457.72-1.152 1.08-2.088 1.08-1.152 0-2.052-.684-2.7-2.052-.648-1.368-.972-3.324-.972-5.868 0-3.936.6-7.08 1.8-9.432 1.2-2.352 2.94-3.528 5.22-3.528Zm14.12 21.06c-.72 0-1.307-.228-1.763-.684-.432-.456-.648-1.212-.648-2.268V13.42c0-.72-.156-1.284-.468-1.692-.312-.432-.792-.648-1.44-.648-.84 0-1.572.396-2.196 1.188-.6.792-1.02 1.956-1.26 3.492h-.072c.048-2.832.516-4.944 1.404-6.336.888-1.416 2.1-2.124 3.636-2.124 1.344 0 2.376.408 3.096 1.224.72.816 1.08 2.028 1.08 3.636v12.888c0 .672.216 1.008.648 1.008.36 0 .66-.276.9-.828v.072c-.264 1.104-.636 1.92-1.116 2.448-.456.528-1.056.792-1.8.792Zm-5.687 0c-.888 0-1.56-.42-2.016-1.26-.456-.864-.684-1.896-.684-3.096 0-1.296.18-2.4.54-3.312.36-.912.84-1.704 1.44-2.376.624-.696 1.56-1.608 2.808-2.736l1.188-1.08v2.52h-.18c-.768 0-1.356.456-1.764 1.368-.384.912-.576 1.968-.576 3.168 0 1.128.12 1.944.36 2.448s.576.756 1.008.756a.953.953 0 0 0 .54-.144c.168-.12.372-.324.612-.612v.18c-.48 1.368-.96 2.412-1.44 3.132-.48.696-1.092 1.044-1.836 1.044ZM6.516 56.36c-1.8 0-3.192-.84-4.176-2.52C1.38 52.136.9 49.916.9 47.18c0-2.232.228-4.224.684-5.976.48-1.776 1.176-3.168 2.088-4.176.912-1.032 1.992-1.548 3.24-1.548.936 0 1.74.336 2.412 1.008.696.672 1.224 1.596 1.584 2.772.36 1.176.54 2.496.54 3.96h-3.96a66.94 66.94 0 0 0 0-3.132c-.024-.792-.132-1.428-.324-1.908-.168-.504-.444-.756-.828-.756-.36 0-.648.204-.864.612-.192.408-.348 1.116-.468 2.124-.096 1.008-.144 2.4-.144 4.176 0 2.376.228 4.32.684 5.832C6 51.656 6.684 52.4 7.596 52.4c.576 0 1.068-.384 1.476-1.152.432-.768.708-1.764.828-2.988h1.62c0 2.424-.408 4.38-1.224 5.868-.792 1.488-2.052 2.232-3.78 2.232ZM3.348 41.6h6.948v1.62H3.348V41.6Zm14.57 14.76c-.888 0-1.668-.072-2.34-.216a9.881 9.881 0 0 1-1.8-.576V48.62h.072c.672 2.256 1.32 3.84 1.944 4.752.648.912 1.356 1.368 2.124 1.368.576 0 .996-.18 1.26-.54.288-.384.432-.924.432-1.62 0-.912-.228-1.728-.684-2.448-.456-.744-1.164-1.656-2.124-2.736a35.204 35.204 0 0 1-1.728-2.088 9.821 9.821 0 0 1-1.116-2.052c-.312-.768-.468-1.608-.468-2.52 0-1.56.444-2.82 1.332-3.78.912-.984 2.148-1.476 3.708-1.476.768 0 1.416.084 1.944.252.528.168.996.372 1.404.612v5.616h-.072c-.552-1.848-1.068-3.12-1.548-3.816-.48-.696-1.056-1.044-1.728-1.044-.552 0-.96.204-1.224.612-.264.408-.396.948-.396 1.62 0 .864.216 1.632.648 2.304.432.672 1.092 1.476 1.98 2.412a27.1 27.1 0 0 1 1.8 2.088c.48.576.876 1.284 1.188 2.124.336.84.504 1.788.504 2.844 0 1.44-.444 2.676-1.332 3.708-.888 1.032-2.148 1.548-3.78 1.548Zm10.961 0c-1.656 0-3.12-.36-4.392-1.08l3.78-.9.036.072a.455.455 0 0 0 .252.216c.12.048.264.072.432.072.912 0 1.596-.9 2.052-2.7.48-1.824.72-3.936.72-6.336 0-2.376-.132-4.068-.396-5.076-.264-1.032-.66-1.548-1.188-1.548-.288 0-.528.072-.72.216a2.508 2.508 0 0 0-.54.576v-.18c.36-1.368.768-2.412 1.224-3.132.456-.72 1.152-1.08 2.088-1.08 1.152 0 2.052.684 2.7 2.052.648 1.368.972 3.324.972 5.868 0 3.936-.6 7.08-1.8 9.432-1.2 2.352-2.94 3.528-5.22 3.528Zm-4.464-1.152c.24-.336.42-1.356.54-3.06.12-1.704.18-3.66.18-5.868V39.8c0-2.208-.06-4.164-.18-5.868-.12-1.704-.3-2.724-.54-3.06V30.8l4.86-1.08v.072c-.096.36-.18 1.464-.252 3.312a142.436 142.436 0 0 0-.108 5.616v16.56h-4.5v-.072ZM42.03 41.78c.096-.432.156-.756.18-.972.264-1.32.492-2.316.684-2.988.192-.696.468-1.26.828-1.692.384-.432.9-.648 1.548-.648.48 0 .84.12 1.08.36v4.824a1.816 1.816 0 0 0-.684-.396 3.031 3.031 0 0 0-.864-.108c-.576 0-1.128.144-1.656.432-.504.288-.876.744-1.116 1.368v-.18Zm-4.5 14.148c.24-.336.42-1.356.54-3.06.12-1.704.18-3.66.18-5.868v-2.16c0-2.208-.06-4.164-.18-5.868-.12-1.704-.3-2.724-.54-3.06v-.072h4.5V47c0 2.208.06 4.164.18 5.868.12 1.704.3 2.724.54 3.06V56h-5.22v-.072Zm17.524.612c-.72 0-1.308-.228-1.764-.684-.432-.456-.648-1.212-.648-2.268V41.42c0-.72-.156-1.284-.468-1.692-.312-.432-.792-.648-1.44-.648-.84 0-1.572.396-2.196 1.188-.6.792-1.02 1.956-1.26 3.492h-.072c.048-2.832.516-4.944 1.404-6.336.888-1.416 2.1-2.124 3.636-2.124 1.344 0 2.376.408 3.096 1.224.72.816 1.08 2.028 1.08 3.636v12.888c0 .672.216 1.008.648 1.008.36 0 .66-.276.9-.828v.072c-.264 1.104-.636 1.92-1.116 2.448-.456.528-1.056.792-1.8.792Zm-5.688 0c-.888 0-1.56-.42-2.016-1.26-.456-.864-.684-1.896-.684-3.096 0-1.296.18-2.4.54-3.312.36-.912.84-1.704 1.44-2.376.624-.696 1.56-1.608 2.808-2.736l1.188-1.08v2.52h-.18c-.768 0-1.356.456-1.764 1.368-.384.912-.576 1.968-.576 3.168 0 1.128.12 1.944.36 2.448s.576.756 1.008.756a.953.953 0 0 0 .54-.144c.168-.12.372-.324.612-.612v.18c-.48 1.368-.96 2.412-1.44 3.132-.48.696-1.092 1.044-1.836 1.044Z"/></svg>